HIERARCHY
ROOT Hips
{
	OFFSET 0.000000 71.427986 0.000000
	CHANNELS 6 Xposition Yposition Zposition Xrotation Yrotation Zrotation
	JOINT Pelvis
	{
		OFFSET 0.000000 0.000000 0.000000
		CHANNELS 3 Xrotation Yrotation Zrotation
		JOINT LeftUpLeg
		{
			OFFSET 6.797100 -2.508499 -1.318700
			CHANNELS 3 Xrotation Yrotation Zrotation
			JOINT LeftLeg
			{
				OFFSET 0.069008 -29.241863 0.690200
				CHANNELS 3 Xrotation Yrotation Zrotation
				JOINT LeftFoot
				{
					OFFSET -0.069008 -29.568123 -0.266800
					CHANNELS 3 Xrotation Yrotation Zrotation
					JOINT LeftToeBase
					{
						OFFSET 3.145500 -8.631000 16.059900
						CHANNELS 3 Xrotation Yrotation Zrotation
						End Site
						{
							OFFSET 0.000000 18.501587 0.000000
						}
					}
				}
			}
			JOINT Left_ShortSleeve
			{
				OFFSET 0.265923 -10.480953 1.153800
				CHANNELS 3 Xrotation Yrotation Zrotation
				End Site
				{
					OFFSET 1.725763 19.823879 0.000000
				}
			}
		}
		JOINT RightUpLeg
		{
			OFFSET -6.797100 -2.508499 -1.318700
			CHANNELS 3 Xrotation Yrotation Zrotation
			JOINT RightLeg
			{
				OFFSET -0.082453 -29.241932 0.688000
				CHANNELS 3 Xrotation Yrotation Zrotation
				JOINT RightFoot
				{
					OFFSET 0.082453 -29.568058 -0.264600
					CHANNELS 3 Xrotation Yrotation Zrotation
					JOINT RightToeBase
					{
						OFFSET -3.115300 -8.682800 16.113400
						CHANNELS 3 Xrotation Yrotation Zrotation
						End Site
						{
							OFFSET 0.000000 18.567114 0.000000
						}
					}
				}
			}
			JOINT Right_ShortSleeve
			{
				OFFSET -0.265923 -10.480953 1.153800
				CHANNELS 3 Xrotation Yrotation Zrotation
				End Site
				{
					OFFSET -1.725766 19.823910 0.000000
				}
			}
		}
	}
	JOINT Spine
	{
		OFFSET 0.000000 13.368103 0.470500
		CHANNELS 3 Xrotation Yrotation Zrotation
		JOINT Spine1
		{
			OFFSET 0.147000 13.837402 0.538800
			CHANNELS 3 Xrotation Yrotation Zrotation
			JOINT Spine2
			{
				OFFSET 0.168000 16.242897 -1.435500
				CHANNELS 3 Xrotation Yrotation Zrotation
				JOINT Neck
				{
					OFFSET 0.217200 18.631500 -1.679100
					CHANNELS 3 Xrotation Yrotation Zrotation
					JOINT Head
					{
						OFFSET 0.000000 6.599396 1.385900
						CHANNELS 3 Xrotation Yrotation Zrotation
						JOINT Hat
						{
							OFFSET -0.532200 27.220596 -10.096100
							CHANNELS 3 Xrotation Yrotation Zrotation
							End Site
							{
								OFFSET 0.000000 22.029861 0.000000
							}
						}
						JOINT HairD
						{
							OFFSET -10.777400 17.437393 -1.325900
							CHANNELS 3 Xrotation Yrotation Zrotation
							JOINT HairD1
							{
								OFFSET -3.290299 -11.051193 1.062200
								CHANNELS 3 Xrotation Yrotation Zrotation
								End Site
								{
									OFFSET 0.000000 11.579437 0.000000
								}
							}
						}
						JOINT HairB
						{
							OFFSET -10.777400 17.437393 1.467900
							CHANNELS 3 Xrotation Yrotation Zrotation
							JOINT HairB1
							{
								OFFSET -1.561200 -12.956299 3.590200
								CHANNELS 3 Xrotation Yrotation Zrotation
								End Site
								{
									OFFSET 0.000000 13.534866 0.000000
								}
							}
						}
						JOINT HairA
						{
							OFFSET 9.713100 17.437393 1.467900
							CHANNELS 3 Xrotation Yrotation Zrotation
							JOINT HairA1
							{
								OFFSET 1.561200 -12.956299 3.590200
								CHANNELS 3 Xrotation Yrotation Zrotation
								End Site
								{
									OFFSET 0.000000 13.534866 0.000000
								}
							}
						}
						JOINT HairC
						{
							OFFSET 9.713100 17.437393 -1.325900
							CHANNELS 3 Xrotation Yrotation Zrotation
							JOINT HairC1
							{
								OFFSET 3.290300 -11.051193 1.062200
								CHANNELS 3 Xrotation Yrotation Zrotation
								End Site
								{
									OFFSET 0.000000 11.579437 0.000000
								}
							}
						}
					}
				}
				JOINT LeftShoulder
				{
					OFFSET 5.101800 15.108002 -2.763700
					CHANNELS 3 Xrotation Yrotation Zrotation
					JOINT LeftArm
					{
						OFFSET 9.825497 2.506317 -1.597400
						CHANNELS 3 Xrotation Yrotation Zrotation
						JOINT LeftForeArm
						{
							OFFSET 21.966244 0.000000 0.000000
							CHANNELS 3 Xrotation Yrotation Zrotation
							JOINT LeftHand
							{
								OFFSET 33.879036 0.000000 0.000000
								CHANNELS 3 Xrotation Yrotation Zrotation
								JOINT LeftHandThumb1
								{
									OFFSET 6.715286 -2.359680 3.363841
									CHANNELS 3 Xrotation Yrotation Zrotation
									JOINT LeftHandThumb2
									{
										OFFSET 2.507072 -1.447464 1.447461
										CHANNELS 3 Xrotation Yrotation Zrotation
										JOINT LeftHandThumb3
										{
											OFFSET 2.898338 -1.673355 1.673357
											CHANNELS 3 Xrotation Yrotation Zrotation
											End Site
											{
												OFFSET -0.295959 3.727692 -0.131651
											}
										}
									}
								}
								JOINT LeftHandIndex1
								{
									OFFSET 14.190811 -0.254547 3.840278
									CHANNELS 3 Xrotation Yrotation Zrotation
									JOINT LeftHandIndex2
									{
										OFFSET 3.551727 0.000000 -0.000000
										CHANNELS 3 Xrotation Yrotation Zrotation
										JOINT LeftHandIndex3
										{
											OFFSET 2.894196 0.000000 0.000000
											CHANNELS 3 Xrotation Yrotation Zrotation
											End Site
											{
												OFFSET -1.000603 2.690872 0.366626
											}
										}
									}
								}
								JOINT LeftHandMiddle1
								{
									OFFSET 13.776489 0.000000 0.000000
									CHANNELS 3 Xrotation Yrotation Zrotation
									JOINT LeftHandMiddle2
									{
										OFFSET 3.438232 0.000000 0.000000
										CHANNELS 3 Xrotation Yrotation Zrotation
										JOINT LeftHandMiddle3
										{
											OFFSET 3.691551 0.000000 0.000000
											CHANNELS 3 Xrotation Yrotation Zrotation
											End Site
											{
												OFFSET -1.082298 3.499527 0.457670
											}
										}
									}
								}
								JOINT LeftHandRing1
								{
									OFFSET 13.966164 -0.268127 -3.067488
									CHANNELS 3 Xrotation Yrotation Zrotation
									JOINT LeftHandRing2
									{
										OFFSET 3.162567 0.000000 0.000000
										CHANNELS 3 Xrotation Yrotation Zrotation
										JOINT LeftHandRing3
										{
											OFFSET 3.324348 0.000000 0.000000
											CHANNELS 3 Xrotation Yrotation Zrotation
											End Site
											{
												OFFSET -0.861900 3.184998 0.405154
											}
										}
									}
								}
								JOINT LeftHandPinky1
								{
									OFFSET 13.131393 -0.168503 -5.746925
									CHANNELS 3 Xrotation Yrotation Zrotation
									JOINT LeftHandPinky2
									{
										OFFSET 2.849182 0.000000 0.000000
										CHANNELS 3 Xrotation Yrotation Zrotation
										JOINT LeftHandPinky3
										{
											OFFSET 2.805038 0.000000 0.000000
											CHANNELS 3 Xrotation Yrotation Zrotation
											End Site
											{
												OFFSET -0.882500 2.642609 0.325652
											}
										}
									}
								}
							}
							JOINT Left_Sleeve
							{
								OFFSET 6.592125 -0.646545 0.805568
								CHANNELS 3 Xrotation Yrotation Zrotation
								End Site
								{
									OFFSET -0.000179 20.275787 -0.000000
								}
							}
						}
					}
				}
				JOINT RightShoulder
				{
					OFFSET -5.731700 15.108002 -2.763700
					CHANNELS 3 Xrotation Yrotation Zrotation
					JOINT RightArm
					{
						OFFSET -9.825497 2.506317 -1.597400
						CHANNELS 3 Xrotation Yrotation Zrotation
						JOINT RightForeArm
						{
							OFFSET -21.966242 0.000000 0.000000
							CHANNELS 3 Xrotation Yrotation Zrotation
							JOINT RightHand
							{
								OFFSET -33.879032 0.000000 0.000000
								CHANNELS 3 Xrotation Yrotation Zrotation
								JOINT RightHandThumb1
								{
									OFFSET -6.715286 -2.359680 3.363841
									CHANNELS 3 Xrotation Yrotation Zrotation
									JOINT RightHandThumb2
									{
										OFFSET -2.507072 -1.447464 1.447461
										CHANNELS 3 Xrotation Yrotation Zrotation
										JOINT RightHandThumb3
										{
											OFFSET -2.898338 -1.673355 1.673357
											CHANNELS 3 Xrotation Yrotation Zrotation
											End Site
											{
												OFFSET 0.295959 3.727692 -0.131651
											}
										}
									}
								}
								JOINT RightHandIndex1
								{
									OFFSET -14.190811 -0.254547 3.840278
									CHANNELS 3 Xrotation Yrotation Zrotation
									JOINT RightHandIndex2
									{
										OFFSET -3.551727 0.000000 -0.000000
										CHANNELS 3 Xrotation Yrotation Zrotation
										JOINT RightHandIndex3
										{
											OFFSET -2.894196 0.000000 0.000000
											CHANNELS 3 Xrotation Yrotation Zrotation
											End Site
											{
												OFFSET 1.000603 2.690872 0.366626
											}
										}
									}
								}
								JOINT RightHandMiddle1
								{
									OFFSET -13.776489 0.000000 0.000000
									CHANNELS 3 Xrotation Yrotation Zrotation
									JOINT RightHandMiddle2
									{
										OFFSET -3.438232 0.000000 0.000000
										CHANNELS 3 Xrotation Yrotation Zrotation
										JOINT RightHandMiddle3
										{
											OFFSET -3.691551 0.000000 0.000000
											CHANNELS 3 Xrotation Yrotation Zrotation
											End Site
											{
												OFFSET 1.082298 3.499527 0.457670
											}
										}
									}
								}
								JOINT RightHandRing1
								{
									OFFSET -13.966164 -0.268127 -3.067488
									CHANNELS 3 Xrotation Yrotation Zrotation
									JOINT RightHandRing2
									{
										OFFSET -3.162567 0.000000 0.000000
										CHANNELS 3 Xrotation Yrotation Zrotation
										JOINT RightHandRing3
										{
											OFFSET -3.324348 0.000000 0.000000
											CHANNELS 3 Xrotation Yrotation Zrotation
											End Site
											{
												OFFSET 0.861900 3.184998 0.405154
											}
										}
									}
								}
								JOINT RightHandPinky1
								{
									OFFSET -13.131393 -0.168503 -5.746925
									CHANNELS 3 Xrotation Yrotation Zrotation
									JOINT RightHandPinky2
									{
										OFFSET -2.849182 0.000000 0.000000
										CHANNELS 3 Xrotation Yrotation Zrotation
										JOINT RightHandPinky3
										{
											OFFSET -2.805038 0.000000 0.000000
											CHANNELS 3 Xrotation Yrotation Zrotation
											End Site
											{
												OFFSET 0.882500 2.642609 0.325652
											}
										}
									}
								}
							}
							JOINT Right_Sleeve
							{
								OFFSET -6.592125 -0.646545 0.805568
								CHANNELS 3 Xrotation Yrotation Zrotation
								End Site
								{
									OFFSET 0.000179 20.275787 -0.000000
								}
							}
						}
					}
				}
				JOINT Bind_Right_JacketString
				{
					OFFSET -3.534800 11.969597 7.200700
					CHANNELS 3 Xrotation Yrotation Zrotation
					JOINT Bind_Right_JacketString1
					{
						OFFSET -0.319900 -6.102600 2.794100
						CHANNELS 3 Xrotation Yrotation Zrotation
						End Site
						{
							OFFSET 0.000000 6.719452 0.000000
						}
					}
				}
				JOINT Bind_Left_JacketString
				{
					OFFSET 2.904800 11.969597 7.200700
					CHANNELS 3 Xrotation Yrotation Zrotation
					JOINT Bind_Left_JacketString1
					{
						OFFSET 0.364800 -5.904503 3.186800
						CHANNELS 3 Xrotation Yrotation Zrotation
						End Site
						{
							OFFSET 0.000000 6.719513 0.000000
						}
					}
				}
				JOINT HairE
				{
					OFFSET 5.915200 17.612701 -11.592200
					CHANNELS 3 Xrotation Yrotation Zrotation
					JOINT HairE1
					{
						OFFSET 0.289200 -7.171898 -1.284500
						CHANNELS 3 Xrotation Yrotation Zrotation
						End Site
						{
							OFFSET 0.000000 7.291756 0.000000
						}
					}
				}
				JOINT HairF
				{
					OFFSET -0.864800 17.612701 -11.592200
					CHANNELS 3 Xrotation Yrotation Zrotation
					JOINT HairF1
					{
						OFFSET 0.000000 -14.087097 -2.127501
						CHANNELS 3 Xrotation Yrotation Zrotation
						End Site
						{
							OFFSET 0.000000 14.246841 0.000000
						}
					}
				}
				JOINT HairG
				{
					OFFSET -8.087700 17.612701 -11.592200
					CHANNELS 3 Xrotation Yrotation Zrotation
					JOINT HairG1
					{
						OFFSET -0.293600 -6.081398 -0.910100
						CHANNELS 3 Xrotation Yrotation Zrotation
						End Site
						{
							OFFSET 0.000000 6.156120 0.000000
						}
					}
				}
			}
		}
	}
	JOINT Pouch
	{
		OFFSET 0.000000 4.394501 10.847300
		CHANNELS 3 Xrotation Yrotation Zrotation
		End Site
		{
			OFFSET 0.000000 21.880577 0.000000
		}
	}
	JOINT Bag
	{
		OFFSET -13.229000 4.813004 -0.593300
		CHANNELS 3 Xrotation Yrotation Zrotation
		End Site
		{
			OFFSET 0.000000 21.880577 0.000000
		}
	}
	JOINT OccupyGuyFacialAnim_Joint
	{
		OFFSET 1.000000 -70.206398 -1.655000
		CHANNELS 3 Xrotation Yrotation Zrotation
		End Site
		{
			OFFSET 0.000000 21.880577 0.000000
		}
	}
}
MOTION
Frames: 4
Frame Time: 0.016667
-0.058086 70.692535 1.358489 -4.120361 -1.668227 0.448431 0.000000 -0.000000 -0.000000 -2.555656 8.474240 4.392033 14.659010 9.581908 1.408083 -7.023104 4.852426 -6.597647 -0.000000 0.000002 0.000000 0.000000 -0.000001 -0.000000 -1.083889 -9.605465 -6.016586 16.367905 -9.444336 1.252175 -9.990658 -4.627140 4.961026 -0.000000 -0.000000 -0.000000 0.000000 0.000000 -0.000000 3.457216 1.699628 -2.304572 0.710881 0.526839 -0.263052 0.710199 0.523097 -0.267070 2.609733 -0.754816 0.156820 18.950508 -7.303240 0.624140 0.000000 0.000001 0.000000 0.000000 0.000001 0.000000 0.000000 0.000001 0.000000 0.000000 0.000001 0.000001 0.000000 -0.000000 0.000000 0.000000 0.000001 0.000001 0.000000 -0.000000 0.000000 0.000000 0.000001 0.000000 0.000000 0.000001 0.000000 2.730607 -4.471830 -12.384154 -6.603772 -10.273115 -60.669155 -0.000004 -16.775172 0.000005 21.485695 -10.082286 -12.336700 3.397826 -6.557747 3.595384 15.353587 21.247771 9.263511 -0.000000 0.000001 -0.000003 -1.222351 -0.461773 -28.262360 0.291705 1.827311 -18.139053 -0.000000 -0.000004 -0.000001 0.095125 4.196372 -33.991205 0.439537 2.228202 -22.314289 0.000002 -0.000001 0.000000 5.761699 10.460319 -44.834519 0.435453 2.218280 -22.209379 -0.000002 -0.000001 0.000002 11.866675 15.214665 -50.260367 0.411972 2.159929 -21.594861 -0.000002 -0.000003 0.000004 0.000001 0.000001 -0.000001 1.996586 1.476375 14.937832 -2.025627 7.814286 63.299987 -0.000002 12.108131 0.000008 6.522645 12.381293 10.265032 -1.352778 9.111908 0.370109 17.058293 -29.720988 -6.078649 -0.000001 0.000000 0.000000 -1.823889 1.946412 21.104024 0.341690 -1.752625 22.062561 0.000003 -0.000002 0.000002 -0.809699 -1.799973 27.787972 0.365845 -1.811052 22.839219 0.000002 0.000004 0.000005 2.161588 -6.996771 31.854609 0.441467 -1.980955 25.124426 0.000001 -0.000001 0.000000 4.447225 -11.624202 37.638843 0.491079 -2.083408 26.523597 0.000002 0.000001 0.000001 0.000001 0.000000 0.000001 -0.000000 0.000000 0.000000 -0.000000 0.000000 -0.000000 -0.000000 0.000000 0.000000 -0.000000 0.000000 0.000000 -0.000000 0.000000 0.000000 -0.000000 0.000000 0.000000 -0.000000 0.000000 0.000000 -0.000000 0.000000 0.000000 -0.000000 0.000000 0.000000 -0.000000 0.000000 0.000000 0.000000 -0.000000 -0.000000 0.000000 -0.000000 -0.000000 0.000000 -0.000000 -0.000000 
-0.136232 70.661270 1.178252 -4.300275 -1.291831 0.545271 -0.000000 0.000000 -0.000000 -2.916076 8.414401 4.439448 15.305771 9.578224 1.402170 -7.334919 4.495426 -6.634637 0.000000 0.000000 0.000000 0.000000 -0.000000 -0.000000 -1.337566 -9.470620 -5.946130 17.038650 -9.480612 1.088287 -10.227511 -5.113801 4.966491 -0.000000 -0.000002 -0.000000 -0.000000 0.000001 -0.000000 3.646364 1.888870 -2.254926 0.742684 0.579923 -0.240280 0.742192 0.575776 -0.244851 2.557504 -0.815733 0.156847 18.874454 -7.890824 0.747876 -0.000003 -0.000000 0.000000 -0.000003 -0.000000 0.000000 -0.000003 -0.000000 0.000000 -0.000003 -0.000000 0.000000 -0.000003 -0.000001 0.000001 -0.000003 -0.000000 0.000000 -0.000003 -0.000001 0.000001 -0.000003 -0.000000 0.000000 -0.000003 -0.000000 0.000000 2.723279 -4.477274 -12.342101 -6.439326 -9.530077 -60.740012 0.000002 -16.130151 0.000003 22.222864 -9.762250 -12.288134 3.397827 -6.557744 3.595386 15.386471 21.304724 9.230597 0.000003 0.000001 -0.000001 -1.171219 -0.431662 -28.161480 0.297618 1.845202 -18.323144 0.000004 0.000000 0.000002 0.117149 4.248508 -34.358645 0.437370 2.222931 -22.258685 0.000003 -0.000000 0.000001 5.785885 10.499907 -44.722692 0.442096 2.234470 -22.380452 0.000005 0.000001 0.000002 12.010678 15.220095 -50.621592 0.430315 2.205679 -22.076452 0.000001 -0.000001 -0.000001 0.000000 -0.000002 -0.000001 1.997861 1.678048 14.926607 -2.716034 8.083338 63.101973 -0.000001 12.576852 -0.000001 6.347677 12.451767 10.578701 -1.352773 9.111915 0.370109 17.109388 -29.778208 -6.033861 0.000001 0.000000 0.000002 -1.914898 1.926748 21.734842 0.354107 -1.782941 22.465028 -0.000001 0.000001 0.000000 -0.822217 -1.866067 28.591691 0.378289 -1.840317 23.229974 -0.000002 0.000002 0.000005 2.205339 -6.995200 32.676509 0.453289 -2.005942 25.464229 0.000001 0.000001 -0.000003 4.563067 -11.613681 38.479401 0.502019 -2.105166 26.822974 -0.000001 -0.000003 -0.000005 0.000001 0.000000 -0.000000 0.000000 0.000000 -0.000000 0.000000 0.000000 -0.000000 0.000000 0.000000 -0.000000 0.000000 0.000000 -0.000000 0.000000 0.000000 -0.000000 0.000000 0.000000 -0.000000 0.000000 0.000000 -0.000000 0.000000 0.000000 -0.000000 0.000000 0.000000 -0.000000 0.000000 0.000000 -0.000000 -0.000000 0.000000 -0.000000 -0.000000 0.000000 -0.000000 -0.000000 0.000000 -0.000000 
-0.207183 70.636818 1.006083 -4.505308 -0.955470 0.630750 0.000000 -0.000000 -0.000000 -3.180704 8.352698 4.472606 15.839122 9.575307 1.407752 -7.594424 4.171207 -6.667369 0.000000 -0.000000 0.000000 0.000001 -0.000001 -0.000000 -1.502775 -9.384352 -5.892403 17.580977 -9.510226 0.967646 -10.402304 -5.519355 4.955233 -0.000000 0.000000 -0.000000 -0.000000 0.000001 -0.000000 3.850994 2.092026 -2.196027 0.779252 0.636650 -0.214313 0.779023 0.632011 -0.219524 2.504434 -0.875464 0.156875 18.776656 -8.477598 0.864275 -0.000001 -0.000000 0.000000 -0.000001 -0.000000 0.000000 -0.000001 -0.000000 0.000000 -0.000001 -0.000000 0.000000 -0.000001 0.000000 -0.000000 -0.000001 -0.000000 0.000000 -0.000001 0.000000 -0.000000 -0.000001 -0.000000 0.000000 -0.000001 -0.000000 0.000000 2.725929 -4.533559 -12.333776 -6.245861 -8.768375 -60.756582 0.000007 -15.406540 0.000023 22.884376 -9.466671 -12.270939 3.397823 -6.557749 3.595391 15.418066 21.359205 9.199015 -0.000001 0.000001 0.000001 -1.119832 -0.397996 -28.078605 0.305171 1.867841 -18.556282 0.000003 -0.000000 0.000001 0.143361 4.310977 -34.824252 0.439434 2.227983 -22.312078 0.000001 0.000002 -0.000001 5.850572 10.548809 -44.833560 0.441410 2.232816 -22.363008 -0.000002 0.000005 -0.000001 12.071311 15.267133 -50.593527 0.454691 2.264805 -22.701334 0.000002 0.000002 0.000003 0.000001 -0.000000 -0.000000 1.997979 1.881701 14.910771 -3.306483 8.365062 62.900756 0.000004 13.174785 -0.000009 6.023916 12.660642 11.096656 -1.352766 9.111908 0.370108 17.154648 -29.828775 -5.994237 0.000000 -0.000001 0.000002 -1.992500 1.916368 22.233610 0.366406 -1.812357 22.856912 0.000004 -0.000003 -0.000002 -0.836417 -1.925799 29.374598 0.391640 -1.871055 23.641708 0.000001 -0.000001 -0.000001 2.254773 -7.003486 33.488691 0.465543 -2.031488 25.812496 0.000004 0.000000 -0.000003 4.679345 -11.600647 39.336644 0.513847 -2.128361 27.142844 0.000000 -0.000002 0.000002 0.000001 0.000001 0.000001 -0.000000 0.000000 0.000000 0.000000 0.000000 0.000000 -0.000000 0.000000 0.000000 -0.000000 0.000000 0.000000 -0.000000 0.000000 0.000000 0.000000 0.000000 0.000000 -0.000000 0.000000 0.000000 -0.000000 0.000000 0.000000 -0.000000 0.000000 0.000000 0.000000 0.000000 0.000000 0.000000 -0.000000 -0.000000 0.000000 -0.000000 -0.000000 0.000000 -0.000000 -0.000000 
-0.272359 70.617874 0.842553 -4.717231 -0.626874 0.702377 -0.000000 -0.000000 -0.000000 -3.389015 8.292318 4.504162 16.289462 9.572848 1.423104 -7.815698 3.844477 -6.698887 0.000000 -0.000000 -0.000000 0.000000 -0.000000 -0.000000 -1.600560 -9.349919 -5.855127 18.016601 -9.530282 0.900738 -10.531310 -5.869384 4.918753 -0.000000 -0.000000 0.000000 0.000001 0.000000 -0.000000 4.046288 2.281388 -2.120625 0.816892 0.688821 -0.187654 0.816969 0.683691 -0.193516 2.454511 -0.931647 0.156904 18.669871 -9.033302 0.984024 0.000000 0.000000 -0.000000 0.000000 0.000000 -0.000000 0.000000 0.000000 -0.000000 0.000000 0.000000 0.000000 -0.000002 0.000000 0.000000 0.000000 0.000000 0.000000 -0.000002 0.000000 0.000000 0.000000 0.000000 -0.000000 0.000000 0.000000 -0.000000 2.731425 -4.597782 -12.332034 -6.033521 -7.976580 -60.769224 0.000006 -14.615924 0.000026 23.498366 -9.138158 -12.293626 3.397825 -6.557746 3.595387 15.448435 21.411494 9.168649 -0.000000 -0.000002 0.000002 -1.062544 -0.357043 -28.005063 0.313278 1.891798 -18.803198 -0.000001 0.000000 -0.000000 0.172064 4.377157 -35.317474 0.444001 2.239081 -22.429265 0.000004 0.000005 0.000001 5.951452 10.614485 -45.075383 0.435972 2.219558 -22.222830 -0.000006 0.000002 0.000002 12.075856 15.341346 -50.311877 0.484489 2.334708 -23.444117 -0.000001 -0.000001 0.000001 -0.000000 0.000002 -0.000002 2.000276 2.088531 14.902334 -3.800159 8.674483 62.681138 -0.000002 13.889303 0.000015 5.628960 13.001801 11.760477 -1.352773 9.111911 0.370107 17.142399 -29.817228 -6.000218 -0.000000 -0.000001 0.000000 -2.046317 1.896126 22.639897 0.378262 -1.840212 23.228772 0.000001 -0.000002 -0.000003 -0.864186 -1.957219 30.119447 0.405468 -1.902317 24.061742 -0.000000 -0.000000 -0.000003 2.313612 -7.025317 34.301849 0.478628 -2.058275 26.178727 -0.000000 -0.000001 -0.000005 4.785209 -11.581175 40.184588 0.526304 -2.152480 27.476519 -0.000000 0.000001 0.000004 0.000001 -0.000000 -0.000000 -0.000000 0.000000 0.000000 -0.000000 0.000000 -0.000000 -0.000000 0.000000 -0.000000 -0.000000 0.000000 -0.000000 -0.000000 0.000000 0.000000 -0.000000 0.000000 -0.000000 -0.000000 0.000000 -0.000000 -0.000000 0.000000 -0.000000 -0.000000 0.000000 0.000000 -0.000000 0.000000 -0.000000 -0.000000 -0.000000 -0.000000 -0.000000 -0.000000 -0.000000 -0.000000 -0.000000 -0.000000 
